External Loads File
version=1
nRows=46
nColumns=13
Range=5.000000e-03-10 seconds
endheader
time 	forceRightX 	forceRightY 	forceRightZ 	pointRightX 	pointRightY 	pointRightZ 	forceLeftX 	forceLeftY 	forceLeftZ 	pointLeftX 	pointLeftY 	pointLeftZ 		
7.505000 35.093685 97.191191 -0.000000 0.161095 0.328046 -0.140257 -282.784958 683.795362 -0.000000 0.446035 0.271381 -0.369328
7.510000 49.529232 108.037206 -0.000000 0.164526 0.338400 -0.140339 -272.169979 712.936024 -0.000000 0.442270 0.260928 -0.369529
7.515000 63.557831 117.602275 -0.000000 0.168418 0.348611 -0.140525 -257.840857 737.774616 -0.000000 0.437990 0.250786 -0.369643
7.520000 76.408655 125.423863 -0.000000 0.172984 0.358686 -0.140722 -239.923711 757.972938 -0.000000 0.433180 0.241084 -0.369823
7.525000 87.279717 131.194223 -0.000000 0.177911 0.368517 -0.140833 -219.099275 773.240872 -0.000000 0.427931 0.231707 -0.369993
7.530000 95.746948 134.664970 -0.000000 0.183446 0.378360 -0.140890 -195.014954 783.921607 -0.000000 0.422234 0.222645 -0.370195
7.535000 101.427492 136.028049 -0.000000 0.189536 0.388210 -0.140893 -168.702916 790.268097 -0.000000 0.416213 0.213907 -0.370324
7.540000 104.156479 135.927183 -0.000000 0.196036 0.397853 -0.140863 -141.781899 792.721504 -0.000000 0.409841 0.205551 -0.370446
7.545000 104.139149 135.282110 -0.000000 0.202948 0.406891 -0.140853 -115.722245 791.995345 -0.000000 0.403057 0.197666 -0.370570
7.550000 102.149947 134.882420 -0.000000 0.210352 0.415672 -0.140823 -90.278617 789.142312 -0.000000 0.395928 0.190341 -0.370659
7.555000 98.795370 135.631619 -0.000000 0.218065 0.423714 -0.140645 -66.832203 785.007547 -0.000000 0.388473 0.183581 -0.370754
7.560000 94.942538 137.947061 -0.000000 0.226061 0.431141 -0.140556 -44.783669 780.688538 -0.000000 0.380682 0.177159 -0.370892
7.565000 91.210541 142.018096 -0.000000 0.234468 0.438123 -0.140009 -23.766809 777.128355 -0.000000 0.372493 0.171384 -0.371057
7.570000 87.737636 147.961778 -0.000000 0.242894 0.444508 -0.139931 -4.614734 775.051601 -0.000000 0.363986 0.166156 -0.371188
7.575000 84.911609 155.460306 -0.000000 0.251859 0.450308 -0.139442 14.428337 774.974110 -0.000000 0.355147 0.161386 -0.371420
7.580000 82.397183 164.452191 -0.000000 0.260725 0.455570 -0.139398 32.225713 777.075175 -0.000000 0.345959 0.157310 -0.371605
7.585000 79.957376 174.720694 -0.000000 0.269477 0.460169 -0.139150 48.855670 781.238827 -0.000000 0.336568 0.153866 -0.371801
7.590000 77.663640 185.924583 -0.000000 0.278425 0.464345 -0.138893 65.996181 786.884860 -0.000000 0.326832 0.151105 -0.372051
7.595000 75.128849 197.989581 -0.000000 0.287368 0.467675 -0.138628 83.163818 793.231264 -0.000000 0.316855 0.149009 -0.372208
7.600000 72.242252 210.759573 -0.000000 0.296299 0.470565 -0.138335 100.733031 799.193856 -0.000000 0.306664 0.147549 -0.372434
7.605000 69.109096 224.013922 -0.000000 0.305427 0.472628 -0.138178 119.229030 803.483793 -0.000000 0.296313 0.146856 -0.372734
7.610000 65.333373 237.612024 -0.000000 0.314054 0.473906 -0.137680 136.700712 805.166322 -0.000000 0.285959 0.146893 -0.373025
7.615000 61.396274 251.014198 -0.000000 0.322548 0.474238 -0.137218 153.861281 803.115783 -0.000000 0.275703 0.147685 -0.373377
7.620000 57.333161 263.741884 -0.000000 0.330805 0.474200 -0.137033 169.601504 796.859496 -0.000000 0.265776 0.149217 -0.373690
7.625000 53.285616 275.333567 -0.000000 0.338673 0.473355 -0.136606 183.228785 786.335513 -0.000000 0.256229 0.151038 -0.374049
7.630000 49.242116 285.536151 -0.000000 0.346004 0.472261 -0.136374 193.759154 771.965681 -0.000000 0.247190 0.153249 -0.374366
7.635000 45.553484 294.281451 -0.000000 0.352815 0.470928 -0.136113 201.327944 754.181769 -0.000000 0.238606 0.155769 -0.374624
7.640000 42.286667 301.777293 -0.000000 0.359072 0.469372 -0.135956 205.400170 733.771827 -0.000000 0.230780 0.158487 -0.374925
7.645000 39.910303 308.293585 -0.000000 0.364756 0.467609 -0.135820 206.664612 711.339145 -0.000000 0.223501 0.161197 -0.375241
7.650000 38.464609 314.202535 -0.000000 0.369739 0.465886 -0.135766 205.041771 687.765908 -0.000000 0.216847 0.163894 -0.375576
7.655000 38.099861 319.875381 -0.000000 0.374089 0.464171 -0.135755 201.021372 663.741952 -0.000000 0.210940 0.166573 -0.375866
7.660000 38.794313 325.698148 -0.000000 0.377730 0.462699 -0.135826 194.935520 639.880796 -0.000000 0.205611 0.169166 -0.376152
7.665000 40.866041 331.947368 -0.000000 0.381114 0.461151 -0.135704 187.862242 616.385977 -0.000000 0.200932 0.171570 -0.376523
7.670000 43.867863 338.853656 -0.000000 0.383978 0.459696 -0.135671 179.388573 593.713485 -0.000000 0.196840 0.173779 -0.376797
7.675000 47.705812 346.439500 -0.000000 0.386403 0.458301 -0.135681 169.807578 571.927000 -0.000000 0.193326 0.175947 -0.377079
7.680000 52.133220 354.585073 -0.000000 0.388505 0.456984 -0.135592 159.160484 551.037827 -0.000000 0.190321 0.177960 -0.377310
7.685000 56.842967 363.038291 -0.000000 0.390288 0.455653 -0.135572 147.467480 530.982968 -0.000000 0.187796 0.179782 -0.377559
7.690000 61.591230 371.426887 -0.000000 0.391829 0.454362 -0.135538 134.922812 511.618836 -0.000000 0.185718 0.181551 -0.377761
7.695000 66.059452 379.318783 -0.000000 0.393204 0.453172 -0.135374 121.666198 492.824451 -0.000000 0.183992 0.183218 -0.377882
7.700000 69.933122 386.257077 -0.000000 0.394431 0.451997 -0.135259 107.883717 474.499585 -0.000000 0.182606 0.184740 -0.378043
7.705000 73.254988 391.745875 -0.000000 0.395562 0.450796 -0.135112 94.213618 456.533307 -0.000000 0.181345 0.186268 -0.378224
7.710000 75.918387 395.390482 -0.000000 0.396684 0.449478 -0.134959 81.102808 439.040512 -0.000000 0.180170 0.187852 -0.378231
7.715000 77.590495 396.955892 -0.000000 0.397759 0.448042 -0.134701 68.775617 422.372188 -0.000000 0.179058 0.189509 -0.378167
7.720000 78.526966 396.214983 -0.000000 0.398973 0.446114 -0.134456 58.068618 406.908968 -0.000000 0.177899 0.191299 -0.378209
7.725000 77.937935 393.245563 -0.000000 0.400338 0.444422 -0.134227 48.661645 393.224383 -0.000000 0.176548 0.193167 -0.378138
7.730000 75.946451 388.046372 -0.000000 0.401904 0.442457 -0.134000 41.115290 381.663375 -0.000000 0.175115 0.195221 -0.378090
